# xmcd
#
# Track frame offsets: 
#        150
#        25517
#        44268
#        60934
#        87667
#        103452
#        127444
#        150595
#        189821
#
# Disc length: 2850 seconds
#
# Revision: 1
# Processed by: cddbd v1.5.2PL0 Copyright (c) Steve Scherf et al.
# Submitted via: ExactAudioCopy v0.99pb3
#
DISCID=720b2009
DTITLE=Focus - Focus Con Proby
DYEAR=1977
DGENRE=Rock
TTITLE0=Wingless
TTITLE1=Orion
TTITLE2=Night Flight
TTITLE3=Eddy
TTITLE4=Sneezing Bull
TTITLE5=Brother
TTITLE6=Tokyo Rose
TTITLE7=Maximum
TTITLE8=How Long
EXTD=
EXTT0=
EXTT1=
EXTT2=
EXTT3=
EXTT4=
EXTT5=
EXTT6=
EXTT7=
EXTT8=
PLAYORDER=
